<svg id="mermaid-1775769831382" width="100%" xmlns="http://www.w3.org/2000/svg" xmlns:xlink="http://www.w3.org/1999/xlink" height="2627.515625" style="max-width: 825.438px; background-color: white;" viewBox="0 0 825.4375 2627.515625"><style>#mermaid-1775769831382 {font-family:"trebuchet ms",verdana,arial,sans-serif;font-size:16px;fill:#333;}#mermaid-1775769831382 .error-icon{fill:#552222;}#mermaid-1775769831382 .error-text{fill:#552222;stroke:#552222;}#mermaid-1775769831382 .edge-thickness-normal{stroke-width:2px;}#mermaid-1775769831382 .edge-thickness-thick{stroke-width:3.5px;}#mermaid-1775769831382 .edge-pattern-solid{stroke-dasharray:0;}#mermaid-1775769831382 .edge-pattern-dashed{stroke-dasharray:3;}#mermaid-1775769831382 .edge-pattern-dotted{stroke-dasharray:2;}#mermaid-1775769831382 .marker{fill:#333333;stroke:#333333;}#mermaid-1775769831382 .marker.cross{stroke:#333333;}#mermaid-1775769831382 svg{font-family:"trebuchet ms",verdana,arial,sans-serif;font-size:16px;}#mermaid-1775769831382 .label{font-family:"trebuchet ms",verdana,arial,sans-serif;color:#333;}#mermaid-1775769831382 .cluster-label text{fill:#333;}#mermaid-1775769831382 .cluster-label span{color:#333;}#mermaid-1775769831382 .label text,#mermaid-1775769831382 span{fill:#333;color:#333;}#mermaid-1775769831382 .node rect,#mermaid-1775769831382 .node circle,#mermaid-1775769831382 .node ellipse,#mermaid-1775769831382 .node polygon,#mermaid-1775769831382 .node path{fill:#ECECFF;stroke:#9370DB;stroke-width:1px;}#mermaid-1775769831382 .node .label{text-align:center;}#mermaid-1775769831382 .node.clickable{cursor:pointer;}#mermaid-1775769831382 .arrowheadPath{fill:#333333;}#mermaid-1775769831382 .edgePath .path{stroke:#333333;stroke-width:2.0px;}#mermaid-1775769831382 .flowchart-link{stroke:#333333;fill:none;}#mermaid-1775769831382 .edgeLabel{background-color:#e8e8e8;text-align:center;}#mermaid-1775769831382 .edgeLabel rect{opacity:0.5;background-color:#e8e8e8;fill:#e8e8e8;}#mermaid-1775769831382 .cluster rect{fill:#ffffde;stroke:#aaaa33;stroke-width:1px;}#mermaid-1775769831382 .cluster text{fill:#333;}#mermaid-1775769831382 .cluster span{color:#333;}#mermaid-1775769831382 div.mermaidTooltip{position:absolute;text-align:center;max-width:200px;padding:2px;font-family:"trebuchet ms",verdana,arial,sans-serif;font-size:12px;background:hsl(80, 100%, 96.2745098039%);border:1px solid #aaaa33;border-radius:2px;pointer-events:none;z-index:100;}#mermaid-1775769831382 :root{--mermaid-font-family:"trebuchet ms",verdana,arial,sans-serif;}</style><g transform="translate(0, 0)"><marker id="flowchart-pointEnd" class="marker flowchart" viewBox="0 0 10 10" refX="9" refY="5" markerUnits="userSpaceOnUse" markerWidth="12" markerHeight="12" orient="auto"><path d="M 0 0 L 10 5 L 0 10 z" class="arrowMarkerPath" style="stroke-width: 1; stroke-dasharray: 1, 0;"></path></marker><marker id="flowchart-pointStart" class="marker flowchart" viewBox="0 0 10 10" refX="0" refY="5" markerUnits="userSpaceOnUse" markerWidth="12" markerHeight="12" orient="auto"><path d="M 0 5 L 10 10 L 10 0 z" class="arrowMarkerPath" style="stroke-width: 1; stroke-dasharray: 1, 0;"></path></marker><marker id="flowchart-circleEnd" class="marker flowchart" viewBox="0 0 10 10" refX="11" refY="5" markerUnits="userSpaceOnUse" markerWidth="11" markerHeight="11" orient="auto"><circle cx="5" cy="5" r="5" class="arrowMarkerPath" style="stroke-width: 1; stroke-dasharray: 1, 0;"></circle></marker><marker id="flowchart-circleStart" class="marker flowchart" viewBox="0 0 10 10" refX="-1" refY="5" markerUnits="userSpaceOnUse" markerWidth="11" markerHeight="11" orient="auto"><circle cx="5" cy="5" r="5" class="arrowMarkerPath" style="stroke-width: 1; stroke-dasharray: 1, 0;"></circle></marker><marker id="flowchart-crossEnd" class="marker cross flowchart" viewBox="0 0 11 11" refX="12" refY="5.2" markerUnits="userSpaceOnUse" markerWidth="11" markerHeight="11" orient="auto"><path d="M 1,1 l 9,9 M 10,1 l -9,9" class="arrowMarkerPath" style="stroke-width: 2; stroke-dasharray: 1, 0;"></path></marker><marker id="flowchart-crossStart" class="marker cross flowchart" viewBox="0 0 11 11" refX="-1" refY="5.2" markerUnits="userSpaceOnUse" markerWidth="11" markerHeight="11" orient="auto"><path d="M 1,1 l 9,9 M 10,1 l -9,9" class="arrowMarkerPath" style="stroke-width: 2; stroke-dasharray: 1, 0;"></path></marker><g class="root"><g class="clusters"></g><g class="edgePaths"><path d="M437.8515625,59L437.8515625,63.166666666666664C437.8515625,67.33333333333333,437.8515625,75.66666666666667,437.8515625,84C437.8515625,92.33333333333333,437.8515625,100.66666666666667,437.8515625,104.83333333333333L437.8515625,109" id="L-A-B-0" class=" edge-thickness-normal edge-pattern-solid flowchart-link LS-A LE-B" style="fill:none;" marker-end="url(#flowchart-pointEnd)"></path><path d="M437.8515625,142L437.8515625,146.16666666666666C437.8515625,150.33333333333334,437.8515625,158.66666666666666,437.8515625,167C437.8515625,175.33333333333334,437.8515625,183.66666666666666,437.8515625,187.83333333333334L437.8515625,192" id="L-B-C-0" class=" edge-thickness-normal edge-pattern-solid flowchart-link LS-B LE-C" style="fill:none;" marker-end="url(#flowchart-pointEnd)"></path><path d="M437.8515625,225L437.8515625,229.16666666666666C437.8515625,233.33333333333334,437.8515625,241.66666666666666,437.9348958333333,250.08333333333334C438.0182291666667,258.5,438.1848958333333,267,438.2682291666667,271.25L438.3515625,275.5" id="L-C-D-0" class=" edge-thickness-normal edge-pattern-solid flowchart-link LS-C LE-D" style="fill:none;" marker-end="url(#flowchart-pointEnd)"></path><path d="M377.85147914549725,508.51554164549725L366.721284704581,524.1822222045811C355.59109026366485,539.8489027636648,333.3307013818324,571.1822638818325,322.2005069409162,592.5156111075829C311.0703125,613.8489583333334,311.0703125,625.1822916666666,311.0703125,630.8489583333334L311.0703125,636.515625" id="L-D-E-0" class=" edge-thickness-normal edge-pattern-solid flowchart-link LS-D LE-E" style="fill:none;" marker-end="url(#flowchart-pointEnd)"></path><path d="M311.0703125,669.515625L311.0703125,675.1822916666666C311.0703125,680.8489583333334,311.0703125,692.1822916666666,311.1536458333333,703.5989583333334C311.2369791666667,715.015625,311.4036458333333,726.515625,311.4869791666667,732.265625L311.5703125,738.015625" id="L-E-F-0" class=" edge-thickness-normal edge-pattern-solid flowchart-link LS-E LE-F" style="fill:none;" marker-end="url(#flowchart-pointEnd)"></path><path d="M253.73820043103447,908.7460129310344L237.97454202586206,923.9680316091954C222.21088362068963,939.1900502873563,190.68356681034481,969.6340876436781,174.91990840517238,990.5227729885058C159.15625,1011.4114583333334,159.15625,1022.7447916666666,159.15625,1028.4114583333333L159.15625,1034.078125" id="L-F-G-0" class=" edge-thickness-normal edge-pattern-solid flowchart-link LS-F LE-G" style="fill:none;" marker-end="url(#flowchart-pointEnd)"></path><path d="M369.4024245689655,908.7460129310344L384.9994163074712,923.9680316091954C400.59640804597694,939.1900502873563,431.7903915229885,969.6340876436781,447.3873832614943,990.5227729885058C462.984375,1011.4114583333334,462.984375,1022.7447916666666,462.984375,1028.4114583333333L462.984375,1034.078125" id="L-F-H-0" class=" edge-thickness-normal edge-pattern-solid flowchart-link LS-F LE-H" style="fill:none;" marker-end="url(#flowchart-pointEnd)"></path><path d="M527.3719917690444,479.99519573095563L558.9011389742036,500.4152672757964C590.430286179363,520.835338820637,653.4885805896814,561.6754819103186,685.0177277948407,590.512220121826C716.546875,619.3489583333334,716.546875,636.1822916666666,716.546875,653.015625C716.546875,669.8489583333334,716.546875,686.6822916666666,716.546875,719.8125C716.546875,752.9427083333334,716.546875,802.3697916666666,716.546875,851.796875C716.546875,901.2239583333334,716.546875,950.6510416666666,716.546875,981.03125C716.546875,1011.4114583333334,716.546875,1022.7447916666666,716.546875,1028.4114583333333L716.546875,1034.078125" id="L-D-I-0" class=" edge-thickness-normal edge-pattern-solid flowchart-link LS-D LE-I" style="fill:none;" marker-end="url(#flowchart-pointEnd)"></path><path d="M159.15625,1067.078125L159.15625,1071.2447916666667C159.15625,1075.4114583333333,159.15625,1083.7447916666667,194.75911458333334,1092.7744672473643C230.36197916666666,1101.8041428280621,301.5677083333333,1111.530160656124,337.1705729166667,1116.3931695701551L372.7734375,1121.2561784841862" id="L-G-J-0" class=" edge-thickness-normal edge-pattern-solid flowchart-link LS-G LE-J" style="fill:none;" marker-end="url(#flowchart-pointEnd)"></path><path d="M462.984375,1067.078125L462.984375,1071.2447916666667C462.984375,1075.4114583333333,462.984375,1083.7447916666667,462.984375,1092.078125C462.984375,1100.4114583333333,462.984375,1108.7447916666667,462.984375,1112.9114583333333L462.984375,1117.078125" id="L-H-J-0" class=" edge-thickness-normal edge-pattern-solid flowchart-link LS-H LE-J" style="fill:none;" marker-end="url(#flowchart-pointEnd)"></path><path d="M716.546875,1067.078125L716.546875,1071.2447916666667C716.546875,1075.4114583333333,716.546875,1083.7447916666667,689.3216145833334,1092.3673550345081C662.0963541666666,1100.9899184023498,607.6458333333334,1109.9017118046997,580.4205729166666,1114.3576085058746L553.1953125,1118.8135052070495" id="L-I-J-0" class=" edge-thickness-normal edge-pattern-solid flowchart-link LS-I LE-J" style="fill:none;" marker-end="url(#flowchart-pointEnd)"></path><path d="M462.984375,1150.078125L462.984375,1154.2447916666667C462.984375,1158.4114583333333,462.984375,1166.7447916666667,462.984375,1175.078125C462.984375,1183.4114583333333,462.984375,1191.7447916666667,462.984375,1195.9114583333333L462.984375,1200.078125" id="L-J-K-0" class=" edge-thickness-normal edge-pattern-solid flowchart-link LS-J LE-K" style="fill:none;" marker-end="url(#flowchart-pointEnd)"></path><path d="M462.984375,1233.078125L462.984375,1237.2447916666667C462.984375,1241.4114583333333,462.984375,1249.7447916666667,463.0677083333333,1258.1614583333333C463.1510416666667,1266.578125,463.3177083333333,1275.078125,463.4010416666667,1279.328125L463.484375,1283.578125" id="L-K-L-0" class=" edge-thickness-normal edge-pattern-solid flowchart-link LS-K LE-L" style="fill:none;" marker-end="url(#flowchart-pointEnd)"></path><path d="M415.71178147527735,1386.0867814752773L391.8385939377311,1399.632213729398C367.9654064001849,1413.1776459835182,320.21903132509243,1440.2685104917591,296.34584378754624,1462.2306094125463C272.47265625,1484.1927083333333,272.47265625,1501.0260416666667,272.47265625,1516.359375C272.47265625,1531.6927083333333,272.47265625,1545.5260416666667,272.47265625,1572.98828125C272.47265625,1600.4505208333333,272.47265625,1641.5416666666667,272.47265625,1684.1328125C272.47265625,1726.7239583333333,272.47265625,1770.8151041666667,272.47265625,1801.27734375C272.47265625,1831.7395833333333,272.47265625,1848.5729166666667,272.47265625,1863.90625C272.47265625,1879.2395833333333,272.47265625,1893.0729166666667,289.0667670682731,1904.15625C305.6608778865462,1915.2395833333333,338.8490995230924,1923.5729166666667,355.4432103413655,1927.7395833333333L372.03732115963857,1931.90625" id="L-L-M-0" class=" edge-thickness-normal edge-pattern-solid flowchart-link LS-L LE-M" style="fill:none;" marker-end="url(#flowchart-pointEnd)"></path><path d="M493.28879324306814,1404.054956756932L500.1963902025568,1414.6056931307767C507.10398716204537,1425.1564295046212,520.9191810810227,1446.2579022523107,527.8267780405114,1462.475305292822C534.734375,1478.6927083333333,534.734375,1490.0260416666667,534.734375,1495.6927083333333L534.734375,1501.359375" id="L-L-N-0" class=" edge-thickness-normal edge-pattern-solid flowchart-link LS-L LE-N" style="fill:none;" marker-end="url(#flowchart-pointEnd)"></path><path d="M534.734375,1534.359375L534.734375,1538.5260416666667C534.734375,1542.6927083333333,534.734375,1551.0260416666667,534.8177083333334,1559.4427083333333C534.9010416666666,1567.859375,535.0677083333334,1576.359375,535.1510416666666,1580.609375L535.234375,1584.859375" id="L-N-O-0" class=" edge-thickness-normal edge-pattern-solid flowchart-link LS-N LE-O" style="fill:none;" marker-end="url(#flowchart-pointEnd)"></path><path d="M488.05938262967567,1734.2312576296756L475.48568344139636,1747.6770896913965C462.91198425311705,1761.122921753117,437.76458587655856,1788.0145858765584,425.1908866882793,1807.1270846049458C412.6171875,1826.2395833333333,412.6171875,1837.5729166666667,412.6171875,1843.2395833333333L412.6171875,1848.90625" id="L-O-P-0" class=" edge-thickness-normal edge-pattern-solid flowchart-link LS-O LE-P" style="fill:none;" marker-end="url(#flowchart-pointEnd)"></path><path d="M569.826414371077,1746.814210628923L575.9530015592309,1758.1628838574359C582.0795887473847,1769.5115570859489,594.3327631236924,1792.2089035429744,600.4593503118462,1809.224243438154C606.5859375,1826.2395833333333,606.5859375,1837.5729166666667,606.5859375,1843.2395833333333L606.5859375,1848.90625" id="L-O-Q-0" class=" edge-thickness-normal edge-pattern-solid flowchart-link LS-O LE-Q" style="fill:none;" marker-end="url(#flowchart-pointEnd)"></path><path d="M412.6171875,1881.90625L412.6171875,1886.0729166666667C412.6171875,1890.2395833333333,412.6171875,1898.5729166666667,415.140562248996,1906.90625C417.6639369979919,1915.2395833333333,422.7106864959839,1923.5729166666667,425.23406124497984,1927.7395833333333L427.7574359939759,1931.90625" id="L-P-M-0" class=" edge-thickness-normal edge-pattern-solid flowchart-link LS-P LE-M" style="fill:none;" marker-end="url(#flowchart-pointEnd)"></path><path d="M606.5859375,1881.90625L606.5859375,1886.0729166666667C606.5859375,1890.2395833333333,606.5859375,1898.5729166666667,589.6345381526104,1906.90625C572.6831388052209,1915.2395833333333,538.7803401104418,1923.5729166666667,521.8289407630522,1927.7395833333333L504.8775414156627,1931.90625" id="L-Q-M-0" class=" edge-thickness-normal edge-pattern-solid flowchart-link LS-Q LE-M" style="fill:none;" marker-end="url(#flowchart-pointEnd)"></path><path d="M437.75,1964.90625L437.75,1969.0729166666667C437.75,1973.2395833333333,437.75,1981.5729166666667,437.75,1989.90625C437.75,1998.2395833333333,437.75,2006.5729166666667,437.75,2010.7395833333333L437.75,2014.90625" id="L-M-R-0" class=" edge-thickness-normal edge-pattern-solid flowchart-link LS-M LE-R" style="fill:none;" marker-end="url(#flowchart-pointEnd)"></path><path d="M437.75,2047.90625L437.75,2052.0729166666665C437.75,2056.2395833333335,437.75,2064.5729166666665,437.75,2072.90625C437.75,2081.2395833333335,437.75,2089.5729166666665,437.75,2093.7395833333335L437.75,2097.90625" id="L-R-S-0" class=" edge-thickness-normal edge-pattern-solid flowchart-link LS-R LE-S" style="fill:none;" marker-end="url(#flowchart-pointEnd)"></path><path d="M437.75,2130.90625L437.75,2135.0729166666665C437.75,2139.2395833333335,437.75,2147.5729166666665,437.75,2155.90625C437.75,2164.2395833333335,437.75,2172.5729166666665,437.75,2176.7395833333335L437.75,2180.90625" id="L-S-T-0" class=" edge-thickness-normal edge-pattern-solid flowchart-link LS-S LE-T" style="fill:none;" marker-end="url(#flowchart-pointEnd)"></path><path d="M437.75,2213.90625L437.75,2218.0729166666665C437.75,2222.2395833333335,437.75,2230.5729166666665,437.8333333333333,2238.9895833333335C437.9166666666667,2247.40625,438.0833333333333,2255.90625,438.1666666666667,2260.15625L438.25,2264.40625" id="L-T-U-0" class=" edge-thickness-normal edge-pattern-solid flowchart-link LS-T LE-U" style="fill:none;" marker-end="url(#flowchart-pointEnd)"></path><path d="M397.09309787587796,2394.858722875878L385.46299822989823,2407.301539896565C373.8328985839186,2419.744356917252,350.5726992919593,2444.629990958626,338.94259964597967,2462.7394746459795C327.3125,2480.8489583333335,327.3125,2492.1822916666665,327.3125,2497.8489583333335L327.3125,2503.515625" id="L-U-V-0" class=" edge-thickness-normal edge-pattern-solid flowchart-link LS-U LE-V" style="fill:none;" marker-end="url(#flowchart-pointEnd)"></path><path d="M479.4462567167848,2394.819368283215L490.9369847639873,2407.268744402679C502.42771281118985,2419.7181205221436,525.4091689055949,2444.6168727610716,536.8998969527975,2462.7329155472025C548.390625,2480.8489583333335,548.390625,2492.1822916666665,548.390625,2497.8489583333335L548.390625,2503.515625" id="L-U-W-0" class=" edge-thickness-normal edge-pattern-solid flowchart-link LS-U LE-W" style="fill:none;" marker-end="url(#flowchart-pointEnd)"></path><path d="M327.3125,2536.515625L327.3125,2540.6822916666665C327.3125,2544.8489583333335,327.3125,2553.1822916666665,339.578125,2561.9581122665536C351.84375,2570.73393286644,376.375,2579.9522407328805,388.640625,2584.5613946661006L400.90625,2589.1705485993207" id="L-V-X-0" class=" edge-thickness-normal edge-pattern-solid flowchart-link LS-V LE-X" style="fill:none;" marker-end="url(#flowchart-pointEnd)"></path><path d="M548.390625,2536.515625L548.390625,2540.6822916666665C548.390625,2544.8489583333335,548.390625,2553.1822916666665,536.0911458333334,2561.9623486266064C523.7916666666666,2570.7424055865463,499.1927083333333,2579.969186173092,486.8932291666667,2584.5825764663655L474.59375,2589.1959667596384" id="L-W-X-0" class=" edge-thickness-normal edge-pattern-solid flowchart-link LS-W LE-X" style="fill:none;" marker-end="url(#flowchart-pointEnd)"></path></g><g class="edgeLabels"><g class="edgeLabel"><g class="label" transform="translate(0, 0)"><foreignObject width="0" height="0"><div xmlns="http://www.w3.org/1999/xhtml" style="display: inline-block; white-space: nowrap;"><span class="edgeLabel"></span></div></foreignObject></g></g><g class="edgeLabel"><g class="label" transform="translate(0, 0)"><foreignObject width="0" height="0"><div xmlns="http://www.w3.org/1999/xhtml" style="display: inline-block; white-space: nowrap;"><span class="edgeLabel"></span></div></foreignObject></g></g><g class="edgeLabel"><g class="label" transform="translate(0, 0)"><foreignObject width="0" height="0"><div xmlns="http://www.w3.org/1999/xhtml" style="display: inline-block; white-space: nowrap;"><span class="edgeLabel"></span></div></foreignObject></g></g><g class="edgeLabel" transform="translate(311.0703125, 602.515625)"><g class="label" transform="translate(-13.0546875, -9)"><foreignObject width="26.109375" height="18"><div xmlns="http://www.w3.org/1999/xhtml" style="display: inline-block; white-space: nowrap;"><span class="edgeLabel">Yes</span></div></foreignObject></g></g><g class="edgeLabel"><g class="label" transform="translate(0, 0)"><foreignObject width="0" height="0"><div xmlns="http://www.w3.org/1999/xhtml" style="display: inline-block; white-space: nowrap;"><span class="edgeLabel"></span></div></foreignObject></g></g><g class="edgeLabel" transform="translate(159.15625, 1000.078125)"><g class="label" transform="translate(-13.0546875, -9)"><foreignObject width="26.109375" height="18"><div xmlns="http://www.w3.org/1999/xhtml" style="display: inline-block; white-space: nowrap;"><span class="edgeLabel">Yes</span></div></foreignObject></g></g><g class="edgeLabel" transform="translate(462.984375, 1000.078125)"><g class="label" transform="translate(-10.2265625, -9)"><foreignObject width="20.453125" height="18"><div xmlns="http://www.w3.org/1999/xhtml" style="display: inline-block; white-space: nowrap;"><span class="edgeLabel">No</span></div></foreignObject></g></g><g class="edgeLabel" transform="translate(716.546875, 703.515625)"><g class="label" transform="translate(-10.2265625, -9)"><foreignObject width="20.453125" height="18"><div xmlns="http://www.w3.org/1999/xhtml" style="display: inline-block; white-space: nowrap;"><span class="edgeLabel">No</span></div></foreignObject></g></g><g class="edgeLabel"><g class="label" transform="translate(0, 0)"><foreignObject width="0" height="0"><div xmlns="http://www.w3.org/1999/xhtml" style="display: inline-block; white-space: nowrap;"><span class="edgeLabel"></span></div></foreignObject></g></g><g class="edgeLabel"><g class="label" transform="translate(0, 0)"><foreignObject width="0" height="0"><div xmlns="http://www.w3.org/1999/xhtml" style="display: inline-block; white-space: nowrap;"><span class="edgeLabel"></span></div></foreignObject></g></g><g class="edgeLabel"><g class="label" transform="translate(0, 0)"><foreignObject width="0" height="0"><div xmlns="http://www.w3.org/1999/xhtml" style="display: inline-block; white-space: nowrap;"><span class="edgeLabel"></span></div></foreignObject></g></g><g class="edgeLabel"><g class="label" transform="translate(0, 0)"><foreignObject width="0" height="0"><div xmlns="http://www.w3.org/1999/xhtml" style="display: inline-block; white-space: nowrap;"><span class="edgeLabel"></span></div></foreignObject></g></g><g class="edgeLabel"><g class="label" transform="translate(0, 0)"><foreignObject width="0" height="0"><div xmlns="http://www.w3.org/1999/xhtml" style="display: inline-block; white-space: nowrap;"><span class="edgeLabel"></span></div></foreignObject></g></g><g class="edgeLabel" transform="translate(272.47265625, 1682.6328125)"><g class="label" transform="translate(-10.2265625, -9)"><foreignObject width="20.453125" height="18"><div xmlns="http://www.w3.org/1999/xhtml" style="display: inline-block; white-space: nowrap;"><span class="edgeLabel">No</span></div></foreignObject></g></g><g class="edgeLabel" transform="translate(534.734375, 1467.359375)"><g class="label" transform="translate(-13.0546875, -9)"><foreignObject width="26.109375" height="18"><div xmlns="http://www.w3.org/1999/xhtml" style="display: inline-block; white-space: nowrap;"><span class="edgeLabel">Yes</span></div></foreignObject></g></g><g class="edgeLabel"><g class="label" transform="translate(0, 0)"><foreignObject width="0" height="0"><div xmlns="http://www.w3.org/1999/xhtml" style="display: inline-block; white-space: nowrap;"><span class="edgeLabel"></span></div></foreignObject></g></g><g class="edgeLabel" transform="translate(412.6171875, 1814.90625)"><g class="label" transform="translate(-10.2265625, -9)"><foreignObject width="20.453125" height="18"><div xmlns="http://www.w3.org/1999/xhtml" style="display: inline-block; white-space: nowrap;"><span class="edgeLabel">No</span></div></foreignObject></g></g><g class="edgeLabel" transform="translate(606.5859375, 1814.90625)"><g class="label" transform="translate(-13.0546875, -9)"><foreignObject width="26.109375" height="18"><div xmlns="http://www.w3.org/1999/xhtml" style="display: inline-block; white-space: nowrap;"><span class="edgeLabel">Yes</span></div></foreignObject></g></g><g class="edgeLabel"><g class="label" transform="translate(0, 0)"><foreignObject width="0" height="0"><div xmlns="http://www.w3.org/1999/xhtml" style="display: inline-block; white-space: nowrap;"><span class="edgeLabel"></span></div></foreignObject></g></g><g class="edgeLabel"><g class="label" transform="translate(0, 0)"><foreignObject width="0" height="0"><div xmlns="http://www.w3.org/1999/xhtml" style="display: inline-block; white-space: nowrap;"><span class="edgeLabel"></span></div></foreignObject></g></g><g class="edgeLabel"><g class="label" transform="translate(0, 0)"><foreignObject width="0" height="0"><div xmlns="http://www.w3.org/1999/xhtml" style="display: inline-block; white-space: nowrap;"><span class="edgeLabel"></span></div></foreignObject></g></g><g class="edgeLabel"><g class="label" transform="translate(0, 0)"><foreignObject width="0" height="0"><div xmlns="http://www.w3.org/1999/xhtml" style="display: inline-block; white-space: nowrap;"><span class="edgeLabel"></span></div></foreignObject></g></g><g class="edgeLabel"><g class="label" transform="translate(0, 0)"><foreignObject width="0" height="0"><div xmlns="http://www.w3.org/1999/xhtml" style="display: inline-block; white-space: nowrap;"><span class="edgeLabel"></span></div></foreignObject></g></g><g class="edgeLabel"><g class="label" transform="translate(0, 0)"><foreignObject width="0" height="0"><div xmlns="http://www.w3.org/1999/xhtml" style="display: inline-block; white-space: nowrap;"><span class="edgeLabel"></span></div></foreignObject></g></g><g class="edgeLabel" transform="translate(327.3125, 2469.515625)"><g class="label" transform="translate(-13.0546875, -9)"><foreignObject width="26.109375" height="18"><div xmlns="http://www.w3.org/1999/xhtml" style="display: inline-block; white-space: nowrap;"><span class="edgeLabel">Yes</span></div></foreignObject></g></g><g class="edgeLabel" transform="translate(548.390625, 2469.515625)"><g class="label" transform="translate(-10.2265625, -9)"><foreignObject width="20.453125" height="18"><div xmlns="http://www.w3.org/1999/xhtml" style="display: inline-block; white-space: nowrap;"><span class="edgeLabel">No</span></div></foreignObject></g></g><g class="edgeLabel"><g class="label" transform="translate(0, 0)"><foreignObject width="0" height="0"><div xmlns="http://www.w3.org/1999/xhtml" style="display: inline-block; white-space: nowrap;"><span class="edgeLabel"></span></div></foreignObject></g></g><g class="edgeLabel"><g class="label" transform="translate(0, 0)"><foreignObject width="0" height="0"><div xmlns="http://www.w3.org/1999/xhtml" style="display: inline-block; white-space: nowrap;"><span class="edgeLabel"></span></div></foreignObject></g></g></g><g class="nodes"><g class="node default default" id="flowchart-A-56" transform="translate(437.8515625, 33.5)"><rect class="basic label-container" style="" rx="0" ry="0" x="-115.1171875" y="-25.5" width="230.234375" height="51"></rect><g class="label" style="" transform="translate(-107.6171875, -18)"><foreignObject width="215.234375" height="36"><div xmlns="http://www.w3.org/1999/xhtml" style="display: inline-block; white-space: nowrap;"><span class="nodeLabel">Frontend tick<br/>realtime_serving_frontend.cpp</span></div></foreignObject></g></g><g class="node default default" id="flowchart-B-57" transform="translate(437.8515625, 125.5)"><rect class="basic label-container" style="" rx="0" ry="0" x="-90.203125" y="-16.5" width="180.40625" height="33"></rect><g class="label" style="" transform="translate(-82.703125, -9)"><foreignObject width="165.40625" height="18"><div xmlns="http://www.w3.org/1999/xhtml" style="display: inline-block; white-space: nowrap;"><span class="nodeLabel">process_pim_callbacks</span></div></foreignObject></g></g><g class="node default default" id="flowchart-C-59" transform="translate(437.8515625, 208.5)"><rect class="basic label-container" style="" rx="0" ry="0" x="-112.890625" y="-16.5" width="225.78125" height="33"></rect><g class="label" style="" transform="translate(-105.390625, -9)"><foreignObject width="210.78125" height="18"><div xmlns="http://www.w3.org/1999/xhtml" style="display: inline-block; white-space: nowrap;"><span class="nodeLabel">maybe_complete_active_task</span></div></foreignObject></g></g><g class="node default default" id="flowchart-D-61" transform="translate(437.8515625, 421.7578125)"><polygon points="146.7578125,0 293.515625,-146.7578125 146.7578125,-293.515625 0,-146.7578125" class="label-container" transform="translate(-146.7578125,146.7578125)" style=""></polygon><g class="label" style="" transform="translate(-122.7578125, -9)"><foreignObject width="245.515625" height="18"><div xmlns="http://www.w3.org/1999/xhtml" style="display: inline-block; white-space: nowrap;"><span class="nodeLabel">waiting admission queue enabled?</span></div></foreignObject></g></g><g class="node default default" id="flowchart-E-63" transform="translate(311.0703125, 653.015625)"><rect class="basic label-container" style="" rx="0" ry="0" x="-112.46875" y="-16.5" width="224.9375" height="33"></rect><g class="label" style="" transform="translate(-104.96875, -9)"><foreignObject width="209.9375" height="18"><div xmlns="http://www.w3.org/1999/xhtml" style="display: inline-block; white-space: nowrap;"><span class="nodeLabel">enqueue_arrivals_up_to_now</span></div></foreignObject></g></g><g class="node default default" id="flowchart-F-65" transform="translate(311.0703125, 851.796875)"><polygon points="114.28125,0 228.5625,-114.28125 114.28125,-228.5625 0,-114.28125" class="label-container" transform="translate(-114.28125,114.28125)" style=""></polygon><g class="label" style="" transform="translate(-90.28125, -9)"><foreignObject width="180.5625" height="18"><div xmlns="http://www.w3.org/1999/xhtml" style="display: inline-block; white-space: nowrap;"><span class="nodeLabel">SLO guarded admission?</span></div></foreignObject></g></g><g class="node default default" id="flowchart-G-67" transform="translate(159.15625, 1050.578125)"><rect class="basic label-container" style="" rx="0" ry="0" x="-151.15625" y="-16.5" width="302.3125" height="33"></rect><g class="label" style="" transform="translate(-143.65625, -9)"><foreignObject width="287.3125" height="18"><div xmlns="http://www.w3.org/1999/xhtml" style="display: inline-block; white-space: nowrap;"><span class="nodeLabel">process_slo_guarded_admission_queue</span></div></foreignObject></g></g><g class="node default default" id="flowchart-H-69" transform="translate(462.984375, 1050.578125)"><rect class="basic label-container" style="" rx="0" ry="0" x="-102.671875" y="-16.5" width="205.34375" height="33"></rect><g class="label" style="" transform="translate(-95.171875, -9)"><foreignObject width="190.34375" height="18"><div xmlns="http://www.w3.org/1999/xhtml" style="display: inline-block; white-space: nowrap;"><span class="nodeLabel">process_admission_queue</span></div></foreignObject></g></g><g class="node default default" id="flowchart-I-71" transform="translate(716.546875, 1050.578125)"><rect class="basic label-container" style="" rx="0" ry="0" x="-100.890625" y="-16.5" width="201.78125" height="33"></rect><g class="label" style="" transform="translate(-93.390625, -9)"><foreignObject width="186.78125" height="18"><div xmlns="http://www.w3.org/1999/xhtml" style="display: inline-block; white-space: nowrap;"><span class="nodeLabel">admit_arrivals_up_to_now</span></div></foreignObject></g></g><g class="node default default" id="flowchart-J-73" transform="translate(462.984375, 1133.578125)"><rect class="basic label-container" style="" rx="0" ry="0" x="-90.2109375" y="-16.5" width="180.421875" height="33"></rect><g class="label" style="" transform="translate(-82.7109375, -9)"><foreignObject width="165.421875" height="18"><div xmlns="http://www.w3.org/1999/xhtml" style="display: inline-block; white-space: nowrap;"><span class="nodeLabel">maybe_start_next_task</span></div></foreignObject></g></g><g class="node default default" id="flowchart-K-79" transform="translate(462.984375, 1216.578125)"><rect class="basic label-container" style="" rx="0" ry="0" x="-180.046875" y="-16.5" width="360.09375" height="33"></rect><g class="label" style="" transform="translate(-172.546875, -9)"><foreignObject width="345.09375" height="18"><div xmlns="http://www.w3.org/1999/xhtml" style="display: inline-block; white-space: nowrap;"><span class="nodeLabel">choose_next_task inside maybe_start_next_task</span></div></foreignObject></g></g><g class="node default default" id="flowchart-L-81" transform="translate(462.984375, 1358.21875)"><polygon points="75.140625,0 150.28125,-75.140625 75.140625,-150.28125 0,-75.140625" class="label-container" transform="translate(-75.140625,75.140625)" style=""></polygon><g class="label" style="" transform="translate(-51.140625, -9)"><foreignObject width="102.28125" height="18"><div xmlns="http://www.w3.org/1999/xhtml" style="display: inline-block; white-space: nowrap;"><span class="nodeLabel">task selected?</span></div></foreignObject></g></g><g class="node default default" id="flowchart-M-83" transform="translate(437.75, 1948.40625)"><rect class="basic label-container" style="" rx="0" ry="0" x="-154.234375" y="-16.5" width="308.46875" height="33"></rect><g class="label" style="" transform="translate(-146.734375, -9)"><foreignObject width="293.46875" height="18"><div xmlns="http://www.w3.org/1999/xhtml" style="display: inline-block; white-space: nowrap;"><span class="nodeLabel">pump_active_pim_job if active task exists</span></div></foreignObject></g></g><g class="node default default" id="flowchart-N-85" transform="translate(534.734375, 1517.859375)"><rect class="basic label-container" style="" rx="0" ry="0" x="-106.1953125" y="-16.5" width="212.390625" height="33"></rect><g class="label" style="" transform="translate(-98.6953125, -9)"><foreignObject width="197.390625" height="18"><div xmlns="http://www.w3.org/1999/xhtml" style="display: inline-block; white-space: nowrap;"><span class="nodeLabel">reserve hybrid task memory</span></div></foreignObject></g></g><g class="node default default" id="flowchart-O-87" transform="translate(534.734375, 1682.6328125)"><polygon points="98.2734375,0 196.546875,-98.2734375 98.2734375,-196.546875 0,-98.2734375" class="label-container" transform="translate(-98.2734375,98.2734375)" style=""></polygon><g class="label" style="" transform="translate(-74.2734375, -9)"><foreignObject width="148.546875" height="18"><div xmlns="http://www.w3.org/1999/xhtml" style="display: inline-block; white-space: nowrap;"><span class="nodeLabel">allocation succeeds?</span></div></foreignObject></g></g><g class="node default default" id="flowchart-P-89" transform="translate(412.6171875, 1865.40625)"><rect class="basic label-container" style="" rx="0" ry="0" x="-101.7890625" y="-16.5" width="203.578125" height="33"></rect><g class="label" style="" transform="translate(-94.2890625, -9)"><foreignObject width="188.578125" height="18"><div xmlns="http://www.w3.org/1999/xhtml" style="display: inline-block; white-space: nowrap;"><span class="nodeLabel">hold / allocator rebind path</span></div></foreignObject></g></g><g class="node default default" id="flowchart-Q-91" transform="translate(606.5859375, 1865.40625)"><rect class="basic label-container" style="" rx="0" ry="0" x="-42.1796875" y="-16.5" width="84.359375" height="33"></rect><g class="label" style="" transform="translate(-34.6796875, -9)"><foreignObject width="69.359375" height="18"><div xmlns="http://www.w3.org/1999/xhtml" style="display: inline-block; white-space: nowrap;"><span class="nodeLabel">start_task</span></div></foreignObject></g></g><g class="node default default" id="flowchart-R-97" transform="translate(437.75, 2031.40625)"><rect class="basic label-container" style="" rx="0" ry="0" x="-85.328125" y="-16.5" width="170.65625" height="33"></rect><g class="label" style="" transform="translate(-77.828125, -9)"><foreignObject width="155.65625" height="18"><div xmlns="http://www.w3.org/1999/xhtml" style="display: inline-block; white-space: nowrap;"><span class="nodeLabel">pump_active_pim_job</span></div></foreignObject></g></g><g class="node default default" id="flowchart-S-99" transform="translate(437.75, 2114.40625)"><rect class="basic label-container" style="" rx="0" ry="0" x="-112.890625" y="-16.5" width="225.78125" height="33"></rect><g class="label" style="" transform="translate(-105.390625, -9)"><foreignObject width="210.78125" height="18"><div xmlns="http://www.w3.org/1999/xhtml" style="display: inline-block; white-space: nowrap;"><span class="nodeLabel">maybe_complete_active_task</span></div></foreignObject></g></g><g class="node default default" id="flowchart-T-101" transform="translate(437.75, 2197.40625)"><rect class="basic label-container" style="" rx="0" ry="0" x="-95.5625" y="-16.5" width="191.125" height="33"></rect><g class="label" style="" transform="translate(-88.0625, -9)"><foreignObject width="176.125" height="18"><div xmlns="http://www.w3.org/1999/xhtml" style="display: inline-block; white-space: nowrap;"><span class="nodeLabel">debug / progress logging</span></div></foreignObject></g></g><g class="node default default" id="flowchart-U-103" transform="translate(437.75, 2349.7109375)"><polygon points="85.8046875,0 171.609375,-85.8046875 85.8046875,-171.609375 0,-85.8046875" class="label-container" transform="translate(-85.8046875,85.8046875)" style=""></polygon><g class="label" style="" transform="translate(-61.8046875, -9)"><foreignObject width="123.609375" height="18"><div xmlns="http://www.w3.org/1999/xhtml" style="display: inline-block; white-space: nowrap;"><span class="nodeLabel">try_fast_forward?</span></div></foreignObject></g></g><g class="node default default" id="flowchart-V-105" transform="translate(327.3125, 2520.015625)"><rect class="basic label-container" style="" rx="0" ry="0" x="-108.890625" y="-16.5" width="217.78125" height="33"></rect><g class="label" style="" transform="translate(-101.390625, -9)"><foreignObject width="202.78125" height="18"><div xmlns="http://www.w3.org/1999/xhtml" style="display: inline-block; white-space: nowrap;"><span class="nodeLabel">advance m_clk to next event</span></div></foreignObject></g></g><g class="node default default" id="flowchart-W-107" transform="translate(548.390625, 2520.015625)"><rect class="basic label-container" style="" rx="0" ry="0" x="-62.1875" y="-16.5" width="124.375" height="33"></rect><g class="label" style="" transform="translate(-54.6875, -9)"><foreignObject width="109.375" height="18"><div xmlns="http://www.w3.org/1999/xhtml" style="display: inline-block; white-space: nowrap;"><span class="nodeLabel">m_clk plus plus</span></div></foreignObject></g></g><g class="node default default" id="flowchart-X-109" transform="translate(437.75, 2603.015625)"><rect class="basic label-container" style="" rx="0" ry="0" x="-36.84375" y="-16.5" width="73.6875" height="33"></rect><g class="label" style="" transform="translate(-29.34375, -9)"><foreignObject width="58.6875" height="18"><div xmlns="http://www.w3.org/1999/xhtml" style="display: inline-block; white-space: nowrap;"><span class="nodeLabel">next tick</span></div></foreignObject></g></g></g></g></g></svg>